<svg version="1.0" xmlns="http://www.w3.org/2000/svg"
 width="652.000000pt" height="379.000000pt" viewBox="0 0 652.000000 379.000000"
 preserveAspectRatio="xMidYMid meet">
<g transform="translate(0.000000,379.000000) scale(0.100000,-0.100000)"
fill="#ffffff" stroke="none">
<path d="M2000 1303 c28 -228 28 -225 -21 -150 -23 34 -44 62 -48 62 -9 0 -94
-94 -324 -361 -111 -128 -217 -244 -236 -256 -53 -36 -77 -30 -193 48 l-106
71 -84 -89 c-47 -48 -144 -152 -217 -230 -73 -77 -142 -143 -153 -146 -27 -7
-76 11 -88 33 -6 10 -10 33 -10 50 0 26 34 66 242 288 133 141 253 262 267
268 35 16 66 5 170 -65 50 -34 96 -59 101 -56 23 14 423 487 440 520 23 45 21
50 -22 59 -129 26 -130 25 72 76 102 26 186 46 187 45 1 0 11 -76 23 -167z
m1000 -620 l185 -361 3 362 2 361 55 0 55 0 0 -430 0 -430 -79 0 -79 0 -183
359 -184 359 -3 -359 -2 -359 -60 0 -60 0 0 430 0 430 83 0 82 0 185 -362z
m901 96 c63 -36 122 -107 141 -173 22 -77 16 -187 -13 -251 -55 -119 -133
-171 -265 -178 -73 -4 -88 -1 -143 23 -122 55 -190 179 -178 326 10 124 68
211 172 261 55 27 68 29 146 26 73 -3 93 -8 140 -34z m666 15 c23 -11 50 -33
59 -49 l17 -28 26 30 c37 45 95 68 170 68 88 0 142 -27 179 -88 l27 -47 3
-247 4 -248 -50 0 -50 0 -4 223 c-3 185 -7 227 -21 254 -26 50 -59 66 -117 61
-57 -6 -82 -24 -113 -83 -20 -36 -22 -59 -25 -247 l-4 -208 -48 0 -48 0 -4
218 c-3 185 -6 223 -22 255 -47 96 -174 87 -228 -15 -21 -40 -23 -57 -26 -250
l-4 -208 -54 0 -54 0 0 310 0 310 55 0 55 0 0 -42 0 -42 33 31 c17 18 46 39
62 47 43 23 130 20 182 -5z m1064 -15 c63 -36 122 -107 141 -173 22 -77 16
-187 -13 -251 -55 -119 -133 -171 -265 -178 -73 -4 -88 -1 -143 23 -122 55
-190 179 -178 326 10 124 68 211 172 261 55 27 68 29 146 26 73 -3 93 -8 140
-34z m-4055 -418 l34 -34 0 -587 0 -587 -29 -29 -29 -29 -144 0 c-149 1 -164
4 -186 47 -9 16 -12 180 -12 605 0 709 -19 647 204 648 l128 0 34 -34z m-592
-395 l26 -24 0 -399 0 -399 -25 -24 c-23 -24 -28 -25 -169 -25 -139 0 -146 1
-173 24 l-28 24 0 395 0 395 24 26 c31 33 42 35 193 33 119 -2 128 -3 152 -26z
m2234 -168 l-3 -48 -222 -3 -223 -2 0 -140 0 -140 200 0 200 0 0 -45 0 -45
-200 0 -200 0 0 -195 0 -195 -60 0 -60 0 0 430 0 430 286 0 285 0 -3 -47z
m212 -326 c0 -277 3 -376 12 -385 7 -7 29 -12 50 -12 l38 0 0 -46 0 -46 -70 4
c-80 4 -113 27 -130 87 -6 21 -10 191 -10 404 l0 367 55 0 55 0 0 -373z m611
107 c63 -36 122 -107 141 -173 22 -77 16 -187 -13 -251 -55 -119 -133 -171
-265 -178 -73 -4 -88 -1 -143 23 -122 55 -190 179 -178 326 10 124 68 211 172
261 55 27 68 29 146 26 73 -3 93 -8 140 -34z m404 -186 c32 -117 61 -216 64
-220 4 -4 39 91 80 212 l72 220 49 0 48 0 71 -206 c39 -113 71 -210 71 -215 0
-5 4 -9 8 -9 5 0 35 96 68 213 l60 212 58 3 c44 2 57 0 53 -10 -2 -7 -44 -147
-93 -310 l-88 -298 -51 0 -50 0 -74 230 c-41 127 -78 227 -82 223 -4 -5 -40
-108 -80 -230 l-74 -223 -50 0 -50 0 -88 303 c-48 166 -88 305 -87 310 0 4 24
7 53 7 l53 0 59 -212z"/>
<path d="M3664 2601 c-44 -20 -85 -66 -104 -116 -28 -74 -4 -210 48 -269 48
-54 155 -71 228 -36 72 36 114 113 114 214 0 81 -36 156 -92 194 -53 35 -136
41 -194 13z"/>
<path d="M5394 2601 c-44 -20 -85 -66 -104 -116 -28 -74 -4 -210 48 -269 48
-54 155 -71 228 -36 72 36 114 113 114 214 0 81 -36 156 -92 194 -53 35 -136
41 -194 13z"/>
<path d="M3804 1401 c-44 -20 -85 -66 -104 -116 -28 -74 -4 -210 48 -269 48
-54 155 -71 228 -36 72 36 114 113 114 214 0 81 -36 156 -92 194 -53 35 -136
41 -194 13z"/>
</g>
</svg>
