<?xml version="1.0" encoding="utf-8"?>
<!-- Generator: Adobe Illustrator 27.2.0, SVG Export Plug-In . SVG Version: 6.00 Build 0)  -->
<svg version="1.1" id="Layer_1" xmlns="http://www.w3.org/2000/svg" xmlns:xlink="http://www.w3.org/1999/xlink" x="0px" y="0px"
	 viewBox="0 0 1920 1080" style="enable-background:new 0 0 1920 1080;" xml:space="preserve">
<style type="text/css">
	.st0{fill:#004956;}
</style>
<g>
	<g>
		<g>
			<g>
				<path class="st0" d="M1746.27,679.23l-38.29-319.2c-10.3-85.94-83.35-150.77-169.92-150.77h-365.71
					c-86.57,0-159.62,64.83-169.92,150.77l-38.25,319.2c-5.82,48.55,9.44,97.38,41.91,133.95c32.43,36.6,79.1,57.56,128.01,57.56
					h442.25c48.87,0,95.54-20.96,128.01-57.56C1736.79,776.62,1752.09,727.79,1746.27,679.23z M1641.38,757.71
					c-17.38,19.58-41.36,30.35-67.5,30.35h-437.3c-26.18,0-50.17-10.77-67.5-30.35c-17.38-19.58-25.2-44.66-22.1-70.65l37.82-315.62
					c5.43-45.29,43.95-79.5,89.6-79.5h361.62c45.64,0,84.17,34.2,89.6,79.5l37.86,315.62
					C1666.58,713.05,1658.71,738.13,1641.38,757.71z"/>
			</g>
			<path class="st0" d="M1574.94,581.25c-6.02-9.23-15.27-15.56-26.05-17.83c-10.8-2.27-21.8-0.2-31.03,5.81
				c-110.11,71.81-217.27,71.8-327.59-0.01c-9.23-6.01-20.26-8.08-31.03-5.79c-10.78,2.28-20.02,8.62-26.03,17.85
				c-6.01,9.23-8.07,20.25-5.79,31.03c2.28,10.78,8.62,20.02,17.85,26.03c68.94,44.88,139.22,67.63,208.89,67.63
				c69.68,0,139.91-22.76,208.75-67.65c9.23-6.02,15.56-15.27,17.83-26.05C1583.02,601.5,1580.96,590.48,1574.94,581.25z"/>
		</g>
	</g>
	<g>
		<g>
			<path class="st0" d="M824.79,408.93l-39.12,13.48c4.27,13.81,9.53,33.53,9.53,45.03c0,12.49-7.89,20.05-23.01,20.05
				c-15.45,0-24.65-3.62-24.65-24v-35.17h-41.42v35.17c0,20.38-9.2,24-25.64,24c-16.11,0-25.31-3.62-25.31-24v-35.17h-41.75v34.84
				c0,20.71-11.18,24.32-35.17,24.32c-24.65,0-33.2-4.93-33.2-31.89V304.73h-43.72v153.18c0,24.98-8.55,29.58-33.19,29.58l-0.01,0
				c-19.4,0-30.89-3.93-30.89-28.59V345.81h-41.1v23.36c-77.91,16.08-105.84,48.63-105.84,89.4c0,38.77,25.63,63.77,63.1,63.77
				c27.96,0,42.07-14.14,48.33-33.21c5.59,33.86,25.28,53.56,63.71,53.58l0.06,0.01c29.26,0,45.69-13.15,52.59-33.2
				c8.55,22.35,27.94,33.2,57.52,33.2l0,0h0h0l0,0c27.28,0,45.03-9.86,51.93-30.24c6.9,20.71,23.34,30.24,46.68,30.24
				c23.34,0,39.45-9.86,46.02-30.57c6.9,20.71,23.67,30.57,50.62,30.57c40.76,0,65.74-26.63,65.74-74.95
				C836.62,450.02,831.69,425.69,824.79,408.93z M396.15,457.57c-6.56,5.26-19.07,9.22-37.48,9.22c-16.77,0-33.52-4.59-33.52-15.78
				c0-12.18,17.41-24.33,70.99-33.21V457.57z"/>
			<path class="st0" d="M418.33,335.61c13.34,0,24.32-9.68,24.32-23.28c0-14.38-11.51-23.28-24.32-23.28
				c-13.34,0-24.59,9.15-24.59,23.28C393.74,326.72,405.77,335.61,418.33,335.61z"/>
			<path class="st0" d="M363.36,335.61c13.34,0,24.32-9.68,24.32-23.28c0-14.38-11.51-23.28-24.32-23.28
				c-13.34,0-24.59,9.15-24.59,23.28C338.77,326.72,350.8,335.61,363.36,335.61z"/>
		</g>
		<g>
			<path class="st0" d="M172.52,778.07l6.47-35.15c12.65,9,35.15,17.15,53.98,17.15c16.31,0,25.87-5.34,25.87-14.34
				c0-24.46-84.91-1.69-84.91-61.01c0-30.93,25.59-51.17,66.92-51.17c22.21,0,42.74,6.19,57.36,13.78l-7.03,34.3
				c-13.78-7.31-31.21-14.06-48.08-14.06c-15.46,0-25.02,5.9-25.02,14.34c0,25.59,84.91,3.66,84.91,59.04
				c0,30.37-28.96,51.73-71.7,51.73C205.7,792.69,185.17,785.1,172.52,778.07z"/>
			<path class="st0" d="M445.24,638.61h44.42v149.86h-44.42v-24.74c-12.09,17.99-29.24,28.4-51.45,28.4
				c-37.68,0-73.95-26.71-73.95-78.73s34.58-79.29,73.95-79.29c21.93,0,39.08,8.15,51.45,24.46V638.61z M445.24,712.84
				c-8.15-27.84-24.46-41.89-43.02-41.89c-19.96,0-35.43,14.9-35.43,41.89c0,26.71,15.74,42.46,35.71,42.46
				C421.91,755.29,437.93,738.14,445.24,712.84z"/>
			<path class="st0" d="M522.28,788.47V590.81h44.42v197.66H522.28z"/>
			<path class="st0" d="M599.32,788.47V590.81h44.42v197.66H599.32z"/>
			<path class="st0" d="M794.44,638.61h44.42v149.86h-44.42v-24.74c-12.09,17.99-29.24,28.4-51.45,28.4
				c-37.68,0-73.95-26.71-73.95-78.73s34.58-79.29,73.95-79.29c21.93,0,39.08,8.15,51.45,24.46V638.61z M794.44,712.84
				c-8.15-27.84-24.46-41.89-43.02-41.89c-19.96,0-35.43,14.9-35.43,41.89c0,26.71,15.74,42.46,35.71,42.46
				C771.1,755.29,787.13,738.14,794.44,712.84z"/>
		</g>
	</g>
</g>
</svg>
